<svg width="30" height="30" viewBox="0 0 30 30" fill="none" xmlns="http://www.w3.org/2000/svg">
<path d="M13.7188 6.90625H16.5312M12.7812 4.09375H13.7188M6.21875 13.4688V14.4062M3.40625 13.4688V17.2188H5.28125M8.09375 17.2188H12.7812M12.7812 9.71875H13.7188M12.7812 19.0938V13.4688H9.03125M12.7812 26.5938H25.9062V24.7188M18.4062 26.5938V24.7188M3.40625 4.09375H9.96875V10.6562H3.40625V4.09375ZM19.3438 4.09375H25.9062V10.6562H19.3438V4.09375ZM3.40625 20.0312H9.96875V26.5938H3.40625V20.0312Z" stroke="#646464" stroke-width="1.875" stroke-miterlimit="10" stroke-linecap="round" stroke-linejoin="round"/>
<path d="M5.28125 5.96875H8.09375V8.78125H5.28125V5.96875ZM21.2188 5.96875H24.0312V8.78125H21.2188V5.96875ZM5.28125 21.9062H8.09375V24.7188H5.28125V21.9062Z" fill="#646464"/>
<path d="M16.5312 4.09375V9.71875V4.09375ZM25.9062 13.4688V19.0938V13.4688ZM23.0938 13.4688H22.1562H23.0938ZM23.0938 16.2812H22.1562H23.0938ZM15.5938 12.5312H16.5312H15.5938ZM17.4688 15.3438V19.0938V15.3438ZM15.5938 15.3438H19.3438H15.5938ZM12.7812 21.9062V23.7812V21.9062ZM12.7812 21.9062H17.4688H12.7812ZM15.5938 21.9062V23.7812V21.9062ZM20.2812 19.0938H23.0938H20.2812ZM21.2188 21.9062V23.7812V21.9062ZM24.0312 21.9062H25.9062H24.0312ZM12.7812 19.0938H14.6562H12.7812ZM9.03125 13.4688V14.4062V13.4688ZM19.3438 15.3438V13.4688V15.3438Z" fill="#646464"/>
<path d="M16.5312 4.09375V9.71875M25.9062 13.4688V19.0938M23.0938 13.4688H22.1562M23.0938 16.2812H22.1562M15.5938 12.5312H16.5312M17.4688 15.3438V19.0938M15.5938 15.3438H19.3438V13.4688M12.7812 23.7812V21.9062H17.4688M15.5938 21.9062V23.7812M20.2812 19.0938H23.0938M21.2188 21.9062V23.7812M24.0312 21.9062H25.9062M12.7812 19.0938H14.6562M9.03125 13.4688V14.4062" stroke="#646464" stroke-width="1.875" stroke-miterlimit="10" stroke-linecap="round" stroke-linejoin="round"/>
</svg>
